<svg id="Layer_1" data-name="Layer 1" xmlns="http://www.w3.org/2000/svg" xmlns:xlink="http://www.w3.org/1999/xlink" viewBox="0 0 128 128"><defs><style>.cls-1{fill:none;}.cls-2{clip-path:url(#clip-path);}.cls-3{fill:url(#radial-gradient);}.cls-4{fill:#fff;}.cls-5{fill:#ff0;}</style><clipPath id="clip-path"><path class="cls-1" d="M113.43,113.43c-19.31,19.31-79.55,19.31-98.86,0s-19.31-79.55,0-98.86,79.55-19.31,98.86,0S132.74,94.12,113.43,113.43Z"/></clipPath><radialGradient id="radial-gradient" cx="61.71" cy="64" r="84.29" gradientTransform="translate(24.73) scale(0.64 1)" gradientUnits="userSpaceOnUse"><stop offset="0" stop-color="#1a73e8"/><stop offset="1" stop-color="#1a31ff"/></radialGradient></defs><title>Word Counte Max Icons Squircle</title><g class="cls-2"><rect class="cls-3" width="128" height="128"/><path class="cls-4" d="M16.75,37.79h7.81a3.53,3.53,0,0,1,2,.55,2.52,2.52,0,0,1,1.06,1.46l5.5,20.9q.27,1,.55,2.17a19.65,19.65,0,0,1,.41,2.42q.27-1.29.6-2.43t.63-2.16l6.49-20.9a2.88,2.88,0,0,1,1.06-1.39,3.15,3.15,0,0,1,2-.62h2.75a3.46,3.46,0,0,1,2,.54,2.76,2.76,0,0,1,1.09,1.47l6.43,20.9q.3,1,.63,2t.58,2.32q.22-1.21.45-2.31t.48-2.06l5.5-20.9a2.62,2.62,0,0,1,1-1.4,3.26,3.26,0,0,1,2-.6h7.31L62.73,77.86H54.32L46.79,53q-.19-.58-.4-1.27T46,50.3q-.19.77-.4,1.46T45.19,53L37.54,77.86H29.13Z"/><path class="cls-4" d="M105.61,67.49a1.86,1.86,0,0,1,.66.12,1.78,1.78,0,0,1,.63.43l3.69,3.88a15.29,15.29,0,0,1-6.06,4.77A21.22,21.22,0,0,1,95.9,78.3a20.53,20.53,0,0,1-8.18-1.55,17.72,17.72,0,0,1-6.13-4.29A18.89,18.89,0,0,1,77.72,66a24,24,0,0,1-1.35-8.15,21.48,21.48,0,0,1,1.54-8.24,19.2,19.2,0,0,1,4.3-6.48,19.41,19.41,0,0,1,6.61-4.24,23.07,23.07,0,0,1,8.5-1.51,21.64,21.64,0,0,1,4.25.4,20.77,20.77,0,0,1,3.73,1.1,17.55,17.55,0,0,1,3.19,1.68,15.43,15.43,0,0,1,2.58,2.16l-3.13,4.21a3.94,3.94,0,0,1-.71.7,1.86,1.86,0,0,1-1.15.32,2.06,2.06,0,0,1-.94-.22,10.33,10.33,0,0,1-.94-.54l-1.09-.69a8.34,8.34,0,0,0-1.4-.69,11.66,11.66,0,0,0-1.9-.54A13,13,0,0,0,97.28,45a11.65,11.65,0,0,0-4.62.89,10.15,10.15,0,0,0-3.59,2.56,11.84,11.84,0,0,0-2.34,4,15.82,15.82,0,0,0-.84,5.31,16.51,16.51,0,0,0,.84,5.47,12,12,0,0,0,2.28,4,9.68,9.68,0,0,0,3.37,2.49,10.07,10.07,0,0,0,4.13.85,19.83,19.83,0,0,0,2.31-.12,9.53,9.53,0,0,0,1.94-.43,9,9,0,0,0,1.71-.78,11.46,11.46,0,0,0,1.64-1.2,3.19,3.19,0,0,1,.71-.45A1.87,1.87,0,0,1,105.61,67.49Z"/><path class="cls-5" d="M46.68,92.33q.23.51.44,1.05c.14-.37.29-.72.45-1.07s.32-.68.49-1l4.67-9.21a1.51,1.51,0,0,1,.26-.37.83.83,0,0,1,.29-.19,1,1,0,0,1,.37-.06h3.71v18.2H53.63V89.19q0-.76.08-1.65L48.88,96.9a1.59,1.59,0,0,1-.61.66,1.67,1.67,0,0,1-.87.23h-.58a1.67,1.67,0,0,1-.87-.23,1.59,1.59,0,0,1-.61-.66l-4.85-9.37c0,.29.06.58.08.87s0,.55,0,.79V99.67H36.88V81.47h3.71a1,1,0,0,1,.37.06.84.84,0,0,1,.29.19,1.51,1.51,0,0,1,.26.37l4.69,9.25Q46.45,91.82,46.68,92.33Z"/><path class="cls-5" d="M77.31,99.67H74a1.51,1.51,0,0,1-.91-.26,1.31,1.31,0,0,1-.49-.66l-1.08-3.17H64.63l-1.08,3.17a1.45,1.45,0,0,1-1.37.91h-3.3l7.05-18.21h4.33Zm-11.7-7h5l-1.67-5-.38-1.12q-.22-.64-.43-1.39-.2.76-.41,1.41t-.4,1.13Z"/><path class="cls-5" d="M83.27,90.3l-5.64-8.85h4.23a1.33,1.33,0,0,1,.61.11,1,1,0,0,1,.34.36l3.63,6.14a2.45,2.45,0,0,1,.14-.31l.18-.31L89.93,82a1,1,0,0,1,.85-.53h4l-5.71,8.66L95,99.67H90.73a1.05,1.05,0,0,1-.67-.2,1.52,1.52,0,0,1-.41-.47L86,92.62a2.53,2.53,0,0,1-.22.47L82.38,99a1.71,1.71,0,0,1-.4.47,1,1,0,0,1-.62.21h-4Z"/></g></svg>